<svg xmlns="http://www.w3.org/2000/svg" viewBox="0 0 1400 640"><rect width="1400" height="640" fill="#dbeafe"/><circle cx="1180" cy="125" r="85" fill="#fff" opacity=".65"/><path d="M710 220h630v420H710z" fill="#fff"/><path d="M860 90h360v550H860z" fill="#f8fafc"/><path d="M990 120h100v92H990z" fill="#0c3b6e"/><path d="M1025 135h30v62h-30zM1008 152h64v28h-64z" fill="#fff"/><g fill="#93c5fd"><path d="M910 260h72v58h-72zM1010 260h72v58h-72zM1110 260h72v58h-72zM910 350h72v58h-72zM1110 350h72v58h-72zM760 290h80v60h-80zM1240 290h80v60h-80z"/></g><path d="M992 440h96v200h-96z" fill="#0c3b6e"/><path d="M0 540c210-75 410-52 650 0v100H0z" fill="#bfdbfe" opacity=".65"/></svg>
