<svg xmlns="http://www.w3.org/2000/svg" viewBox="0 0 800 420"><rect width="800" height="420" fill="#e0f2fe"/><path d="M0 345h800v75H0z" fill="#cad8c8"/><path d="M70 155h660v200H70z" fill="#fff" stroke="#94a3b8" stroke-width="4"/><path d="M250 60h300v295H250z" fill="#f8fafc" stroke="#64748b" stroke-width="4"/><path d="M365 78h70v70h-70z" fill="#0c3b6e"/><path d="M389 88h22v50h-22zM375 102h50v22h-50z" fill="#fff"/><g fill="#bfdbfe"><path d="M285 175h55v42h-55zM372 175h55v42h-55zM460 175h55v42h-55zM285 242h55v42h-55zM460 242h55v42h-55zM110 195h75v55h-75zM615 195h75v55h-75z"/></g><path d="M365 250h70v105h-70z" fill="#0c3b6e"/></svg>
