<svg xmlns="http://www.w3.org/2000/svg" viewBox="0 0 800 420"><defs><linearGradient id="s" x2="0" y2="1"><stop stop-color="#dbeafe"/><stop offset="1" stop-color="#f8fafc"/></linearGradient></defs><rect width="800" height="420" fill="url(#s)"/><circle cx="690" cy="78" r="44" fill="#fde68a"/><path d="M0 330h800v90H0z" fill="#bbd7c1"/><path d="M102 125h596v225H102z" fill="#fff" stroke="#94a3b8" stroke-width="4"/><path d="M220 80h360v270H220z" fill="#f8fafc" stroke="#64748b" stroke-width="4"/><path d="M350 80h100v70H350z" fill="#0c3b6e"/><path d="M390 92h20v46h-20zM377 105h46v20h-46z" fill="#fff"/><g fill="#bfdbfe" stroke="#0c3b6e" stroke-width="3"><path d="M260 175h60v48h-60zM370 175h60v48h-60zM480 175h60v48h-60zM145 175h50v48h-50zM605 175h50v48h-50zM260 250h60v48h-60zM480 250h60v48h-60z"/></g><path d="M365 250h70v100h-70z" fill="#0c3b6e"/></svg>
